<svg id="Layer_1" data-name="Layer 1" xmlns="http://www.w3.org/2000/svg" viewBox="0 0 3075 1796"><defs><style>.cls-1{fill:#281166;fill-rule:evenodd;}</style></defs><title>Artboard 1</title><path class="cls-1" d="M3061.25,9c-16,0-16-8.78-31.93-8.78S3013.35,9,2997.38,9s-16-8.78-31.93-8.78S2949.49,9,2933.53,9s-16-8.78-31.93-8.78S2885.63,9,2869.66,9s-16-8.78-31.93-8.78S2821.77,9,2805.81,9s-16-8.78-31.93-8.78S2757.91,9,2742,9,2726,.17,2710,.17,2694.05,9,2678.09,9s-16-8.78-31.93-8.78S2630.2,9,2614.23,9s-16-8.78-31.93-8.78S2566.33,9,2550.37,9s-16-8.78-31.93-8.78S2502.47,9,2486.5,9s-16-8.78-31.93-8.78S2438.6,9,2422.63,9s-16-8.78-31.93-8.78S2374.73,9,2358.76,9s-16-8.78-31.93-8.78S2310.86,9,2294.89,9,2278.92.17,2263,.17,2247,9,2231,9s-16-8.78-31.94-8.78S2183.11,9,2167.14,9s-16-8.78-31.94-8.78S2119.23,9,2103.26,9s-16-8.78-31.94-8.78S2055.35,9,2039.38,9s-16-8.78-31.94-8.78S1991.47,9,1975.5,9s-16-8.78-31.94-8.78S1927.59,9,1911.62,9s-16-8.78-31.94-8.78S1863.71,9,1847.75,9s-16-8.78-31.94-8.78S1799.84,9,1783.87,9s-16-8.78-31.94-8.78S1736,9,1720,9,1704,.17,1688.05.17s-16,8.78-32,8.78-16-8.78-31.94-8.78-16,8.78-32,8.78-16-8.78-32-8.78c-9.46,0-13.34,3.07-18.24,5.58h0l-1.09.54-.38.18-.83.36-.82.33-.58.22c-.39.14-.8.27-1.22.4l-.35.11c-.54.15-1.1.29-1.7.42h0c-.64.13-1.32.25-2,.34h0a34.94,34.94,0,0,1-4.7.3c-16,0-16-8.78-31.93-8.78S1480.37,9,1464.4,9s-16-8.78-31.93-8.78S1416.51,9,1400.55,9s-16-8.78-31.93-8.78S1352.65,9,1336.68,9s-16-8.78-31.93-8.78S1288.79,9,1272.83,9s-16-8.78-31.93-8.78S1224.93,9,1209,9,1193,.19,1177,.19,1161.07,9,1145.11,9s-16-8.78-31.93-8.78S1097.22,9,1081.25,9s-16-8.78-31.93-8.78S1033.35,9,1017.39,9s-16-8.78-31.93-8.78S969.49,9,953.52,9,937.55.19,921.59.19,905.62,9,889.65,9,873.68.19,857.72.19,841.75,9,825.78,9,809.81.19,793.85.19,777.88,9,761.91,9,745.94.19,730,.19,714,9,698,9,682.06.17,666.09.17,650.12,9,634.15,9,618.18.17,602.21.17,586.24,9,570.27,9,554.3.17,538.33.17,522.36,9,506.39,9,490.42.17,474.45.17,458.48,9,442.51,9,426.54.17,410.57.17,394.6,9,378.63,9,362.66.17,346.7.17,330.73,9,314.76,9,298.79.17,282.82.17,266.85,9,250.88,9,234.91.17,218.94.17,203,9,187,9,171,.17,155.06.17,139.09,9,123.11,9,107.14.17,91.17.17,75.2,9,59.22,9,43.25.17,27.27.17C13.05.17,11.47,7.13,0,8.65V1795.83H3075V5.74A27.51,27.51,0,0,1,3061.25,9Z"/></svg>